<svg xmlns="http://www.w3.org/2000/svg" viewBox="0 0 139.18 159.83"><title>Icon Sampah</title><g id="Layer_2" data-name="Layer 2"><g id="Layer_1-2" data-name="Layer 1"><path d="M11,40.22C2.64,39.2-.19,37,0,32.15c.21-5.07,3.63-8,11.59-6.84,13.37,2,21.95-2.77,27.6-14.85C42.88,2.58,50-.31,58.62,0c7.82.3,15.66.13,23.49,0C89.73,0,95.62,3,99.73,9.44c2.59,4.08,5.41,8,7.88,12.16,1.53,2.58,3.35,3.71,6.43,3.56,5.15-.25,10.32-.1,15.49-.06,6.23,0,9.44,2.41,9.64,7s-2.73,7.18-9,7.71c-.49,0-1,.16-2,.35-.57,7.13-1.18,14.37-1.72,21.62q-2.78,37.63-5.51,75.26c-1.19,16.44-8,22.74-24.56,22.74q-27.75,0-55.48,0c-14,0-21.43-7.16-22.45-21.21Q15,91,11.38,43.42C11.3,42.43,11.12,41.46,11,40.22Zm102.58,0H26.11a5.78,5.78,0,0,0-.34,1.31q3.43,48.83,6.91,97.65c.33,4.61,3.09,6,7.47,6,19.48-.12,39,0,58.45-.06,6.16,0,7.53-1.3,8-7.53q2.39-32.63,4.73-65.26C112.08,61.7,112.79,51.12,113.54,40.18ZM91.75,24.79c-3.79-9.13-5-10-13.72-10H60.57C53,14.82,50.17,17,48,24.79Z"/></g></g></svg>