<svg width="127" height="119" viewBox="0 0 127 119" fill="none" xmlns="http://www.w3.org/2000/svg">
<path d="M29.9848 28.0603C27.2365 29.9504 24.7899 32.1733 22.6479 34.7256C20.5059 37.278 18.7463 40.0697 17.366 43.1008C15.1991 47.8791 14.0924 53.074 13.2375 58.2408C12.2084 64.4709 11.5214 70.8845 12.8333 77.0586C13.8188 81.7063 15.9142 86.0556 18.308 90.1593C20.6614 94.1821 23.5246 98.1956 27.7371 100.207C31.8811 102.187 36.7092 101.945 41.2823 101.497C53.6368 100.288 65.9633 97.8598 78.352 98.5811C81.1033 98.7428 83.8547 99.0599 86.6029 98.951C88.7386 98.8205 90.8558 98.5655 92.9604 98.1832C95.9636 97.7044 99.0942 97.1759 101.547 95.3883C102.694 94.552 103.636 93.4764 104.569 92.4132C108.533 87.896 112.63 83.1302 114.013 77.2887C114.607 74.7923 114.669 72.2057 114.732 69.6409C114.875 63.6937 115.002 57.6191 113.205 51.9486C111.893 47.8014 109.77 40.3992 107.345 36.7837C104.721 32.8945 101.298 31.3059 97.717 28.2375C90.921 22.4426 82.2785 21.2022 73.3468 20.7265C64.4151 20.2509 55.5114 21.7866 46.7414 23.5276" fill="#CCFFBB"/>
<path d="M81.6973 46.6359C81.6973 46.8193 81.6725 47.0058 81.66 47.1892H81.6476L81.6973 46.6359Z" fill="#CCFFBB"/>
<path d="M80.1988 36.6283C80.1833 36.3983 79.6268 35.6708 79.3905 35.5931C76.2257 34.5298 72.7842 34.8563 69.4609 35.192C66.2246 35.5185 54.8059 35.8729 53.8856 35.7299C52.2286 35.4718 50.6276 35.5091 48.9706 35.2511H48.0224C47.9384 37.362 47.8514 39.4729 47.7643 41.5838C47.7146 42.7838 47.6649 43.9869 47.7115 45.1932C47.8638 49.2844 47.6151 53.3911 49.4182 57.0782C50.0493 58.356 51.7126 59.786 52.8131 60.6938C53.4939 61.2534 56.8297 63.2524 57.6815 63.6659C58.6484 64.1446 60.1375 64.0234 61.1976 64.241C61.3904 64.3032 61.5769 64.2876 61.7572 64.1912C61.8163 64.1508 63.5075 64.5457 64.3407 64.5083C67.4588 64.3747 70.3998 63.5819 73.1604 62.1332C74.0247 61.7011 74.805 61.1539 75.5045 60.4917C76.3097 59.6897 79.1169 54.0844 79.6517 52.1694C81.0537 47.1455 80.6216 41.8232 80.1988 36.6283ZM69.6972 55.8347C69.0661 56.8575 67.9189 57.442 66.7873 57.8492C65.2609 58.4026 63.6847 58.729 62.065 58.8316C62.0836 59.0523 61.5054 58.7446 61.3095 58.642C59.6401 57.7653 58.0577 57.2057 57.3147 55.4803C56.9043 54.5197 56.982 53.1766 57.9116 52.7072C58.3064 52.5393 58.7168 52.4678 59.1458 52.4927L67.2443 52.3217C67.9065 52.3093 68.6091 52.3062 69.178 52.6419C70.2101 53.2606 70.3283 54.815 69.6972 55.8347Z" fill="#FFC089"/>
<path d="M76.6421 65.3599C75.8431 64.1662 75.069 63.4262 74.8452 61.9185C74.7799 61.5081 74.2203 61.4397 73.9623 61.6884C71.5902 63.9423 67.0762 64.4366 63.958 64.4491C60.4979 64.4553 57.2088 63.706 54.0937 62.2045C54.1061 61.6014 53.1673 61.3651 53.0647 62.0055C52.8719 63.2677 52.3621 64.39 51.5445 65.3724C51.1683 65.8449 50.7548 66.2615 50.6926 66.8926C50.5652 68.1983 52.104 69.6004 52.9372 70.4305C55.6139 73.0885 60.2461 73.8657 63.8741 74.0243C67.6265 74.1921 71.385 73.1165 73.9809 70.3154C74.584 69.6657 75.1094 68.9569 75.6441 68.2543C76.0794 67.6885 76.9281 66.9268 76.9281 66.1434C76.9281 65.848 76.8317 65.5869 76.6421 65.3599Z" fill="#FFC089"/>
<path d="M48.7223 63.84C46.3751 64.8628 43.7793 65.4255 41.4321 66.4607C39.8341 67.1602 38.4725 68.3478 37.0455 69.352C34.6424 71.0432 32.2206 72.8991 30.7439 75.4297C27.0257 81.8028 25.1107 89.6495 24.7097 97.0082C24.6786 97.5957 24.4547 98.1988 24.6226 98.7584C25.0983 100.089 25.9035 101.171 27.0382 102.013C28.7885 103.335 30.7284 105.191 32.432 106.565C33.5077 107.476 34.6517 108.293 35.8579 109.024C43.4248 113.345 51.8374 117.035 60.539 117.573C66.8126 117.959 73.0116 116.308 79.077 114.673C77.8241 114.007 76.4749 113.23 75.9837 111.906C75.7785 111.219 75.707 110.519 75.7692 109.807C75.9184 105.483 76.593 101.239 77.7961 97.0828C78.1443 95.8828 78.5298 94.5802 78.0666 93.4175C77.7433 92.6092 77.0251 91.9625 76.8604 91.1169C76.6054 89.7863 77.7619 88.5583 77.7775 87.2029C77.7775 86.1801 77.1619 85.1013 77.6656 84.2122C78.0386 83.5531 78.878 83.3324 79.4345 82.8132C79.8044 82.4215 80.0873 81.9738 80.277 81.4702C82.6273 76.2598 84.8998 70.7914 85.5931 65.1208C83.8428 64.4587 81.3682 63.7778 79.5713 63.268C79.3319 63.1685 79.0925 63.1685 78.8531 63.268C78.6293 63.4421 78.5018 63.669 78.4739 63.9519C77.1744 69.1561 72.1225 72.0256 67.139 74.0618C65.2862 74.8297 59.4664 74.2391 58.5182 73.5893C56.569 72.2525 54.3089 71.4256 52.3565 70.1012C50.4011 68.7737 48.6912 66.7188 48.741 64.3623" fill="#52993A"/>
<path d="M91.3065 67.5582C90.1407 70.5116 89.1645 73.5272 88.3842 76.608C88.2257 77.2298 88.0764 77.8858 88.2039 78.5138C88.4619 79.7728 89.7148 80.5314 90.5822 81.4827C91.9874 83.0154 92.4319 85.176 92.9884 87.1843C93.1998 87.9335 93.4423 88.717 93.9677 89.2828C94.3687 89.6838 94.8226 90.0165 95.3262 90.2807C98.4973 92.1833 101.413 94.4155 104.081 96.974C105.34 95.544 106.422 93.9927 107.329 92.317C107.563 91.9564 107.687 91.5615 107.699 91.1325C107.665 90.5512 107.224 90.0848 106.838 89.6496C105.934 88.6206 105.215 87.4765 104.684 86.2143C104.152 84.9553 103.832 83.6465 103.726 82.2817C103.658 81.3988 103.683 80.491 103.394 79.6516C103.095 78.9055 102.679 78.234 102.141 77.6371C99.0631 73.8381 95.4848 70.5862 91.406 67.8815" fill="#52993A"/>
<path d="M94.0303 90.2901C92.9236 89.1429 92.1029 88.1419 91.6303 86.7398C91.9816 83.062 89.479 79.2351 85.6365 78.6941C84.0945 78.4796 82.2789 78.8993 81.2717 80.1491C80.5504 81.0475 80.6841 82.4185 79.9069 83.2019C79.3287 83.7864 78.4582 84.0258 78.0478 84.7906C77.6903 85.4527 77.8115 86.0683 77.9608 86.7709C78.1255 87.5388 78.2343 87.8248 77.9919 88.5864C77.8551 89.0186 77.6592 89.401 77.5224 89.8207C77.3608 90.2061 77.2644 90.6041 77.2302 91.0207C77.2022 93.0849 78.9587 93.0445 80.4976 92.8114C81.2841 92.6839 82.0644 92.6994 82.8447 92.8549C83.622 93.0103 84.3494 93.2963 85.024 93.716C86.3515 94.5368 86.9546 95.7989 87.85 96.9958C88.7453 98.1959 90.1319 99.0446 91.6614 98.3078C93.4428 97.4373 94.8697 94.7015 95.0003 92.7989C95.0376 92.3295 94.9723 91.8756 94.8013 91.4372C94.6303 90.9958 94.3754 90.6134 94.0303 90.2901Z" fill="#FFC089"/>
<path d="M80.1087 94.0546C79.061 94.9065 78.9584 96.4205 78.6973 97.7386C78.2621 99.9272 77.1864 101.932 76.3657 104.009C75.5481 106.089 74.9791 108.399 75.6071 110.544C75.9149 111.592 76.5833 112.621 77.6154 112.991C78.1533 113.155 78.7035 113.214 79.2631 113.171C80.6217 113.143 82.0331 113.003 83.1834 112.288C84.3336 111.57 85.1264 110.115 84.6756 108.84C84.259 107.653 82.9657 106.991 82.3657 105.884C81.803 104.845 81.9305 103.58 82.1201 102.427C82.5274 99.9303 83.1492 97.4868 83.9885 95.0992C84.1098 94.7448 84.2435 94.3593 84.1191 94.008C83.9326 93.4608 83.2704 93.265 82.6984 93.1966C81.8434 93.0878 80.9854 93.0878 80.1305 93.1966" fill="#6B503B"/>
<path d="M87.4457 79.1666C90.0944 71.9696 92.2115 64.6204 93.797 57.1187C93.9276 56.497 94.055 55.841 93.8374 55.2441C93.4644 54.2213 92.2737 53.7923 91.2229 53.4907C90.9369 53.3695 90.6478 53.3602 90.3555 53.4659C90.169 53.5871 90.0322 53.7456 89.9389 53.9446C87.7752 57.6783 86.712 61.9281 85.6736 66.1157L83.5285 74.7894C83.2518 75.9085 83.0871 77.3448 84.0415 77.9821C84.8778 78.5386 86.1306 78.122 86.9109 78.75" fill="#6B503B"/>
<path d="M90.6193 46.4211L88.9654 49.9559C88.7944 50.3258 87.9395 51.6968 88.1758 52.0201C88.2659 52.1445 89.2763 52.502 89.41 52.5797C91.1789 53.5777 92.8639 53.2326 94.782 53.901C95.5717 54.1745 96.6007 54.358 97.1137 53.6958C97.2722 53.4533 97.3779 53.189 97.4245 52.8999C97.7572 51.5383 98.0805 50.1673 98.3976 48.7963C98.5033 48.4823 98.5095 48.1652 98.4131 47.8481C98.2857 47.6056 98.1023 47.4128 97.866 47.2729C96.9178 46.6108 95.895 46.1009 94.7945 45.7496C93.6939 45.3952 92.5654 45.2118 91.4089 45.1993" fill="#6B503B"/>
<path d="M23.2415 50.046C20.6954 50.046 18.0778 51.5445 15.7586 52.4461C14.9503 52.76 13.9119 53.0119 13.1627 53.5217C13.3306 51.4139 13.3648 49.2906 12.942 47.2108C12.544 45.2522 11.6891 42.532 9.5751 41.8387C9.43521 41.8014 9.30153 41.8169 9.17406 41.8884C9.04971 41.96 8.96577 42.0657 8.92536 42.2087C8.2383 46.446 7.6041 51.5476 10.9274 54.9269C11.2228 55.2285 11.543 55.4989 11.8881 55.7445C11.8881 55.7849 11.8881 55.8191 11.8881 55.8564C11.8352 56.3445 12.3793 56.4751 12.7057 56.2513C13.3554 56.5901 14.0363 56.8326 14.7544 56.985C15.4695 57.1373 16.1907 57.1901 16.9213 57.1435C17.6519 57.1 18.3638 56.957 19.0539 56.7176C19.7441 56.4813 20.3907 56.1549 20.9939 55.7414C21.8457 55.1383 22.6509 54.4823 23.4094 53.7673C23.997 53.2326 25.1535 52.3528 25.3556 51.5134C25.6664 50.2637 24.2053 50.0429 23.2415 50.046Z" fill="#FFC035"/>
<path d="M21.0439 64.1477C20.8511 61.8472 18.3298 63.6907 17.3692 64.4026C15.1682 66.0596 13.4801 68.127 12.3049 70.6079C11.6738 70.07 10.9619 69.6814 10.3432 69.0908C9.57225 68.3509 9.04375 67.3902 8.22612 66.669C6.73699 65.3539 4.82195 64.6358 2.98773 63.9425C2.54939 63.7778 2.15146 64.3467 2.38773 64.7104C4.76288 68.4317 7.33078 74.5934 12.5567 74.581C12.6718 74.5841 12.7775 74.553 12.8707 74.4815C12.9609 74.41 13.0199 74.3198 13.0448 74.2048C17.2635 72.9986 21.42 68.7581 21.0439 64.1477Z" fill="#FFC035"/>
<path d="M21.7248 77.466C21.1901 77.7769 20.6211 78.7872 20.2916 79.2722C19.6356 80.2453 19.0667 81.2681 18.588 82.3406C17.8356 84.0412 17.3196 85.8132 17.046 87.6505C15.7216 86.3417 14.22 85.2754 12.5444 84.4515C10.8687 83.6308 9.10601 83.093 7.25625 82.8443C7.16921 82.8349 7.08527 82.8443 7.00133 82.8722C6.9205 82.9002 6.84589 82.9406 6.78371 82.9997C6.71843 83.0588 6.67179 83.1272 6.6376 83.208C6.6034 83.2857 6.58786 83.3697 6.59096 83.4567C6.2148 83.1583 5.52153 83.4318 5.73914 83.9665C7.28113 87.6878 10.5143 90.3894 14.5776 90.9024C16.3372 91.1293 18.7496 91.0671 20.2636 90.0132C21.7745 88.9593 22.617 86.808 23.1486 85.151C23.503 84.0381 24.8181 75.6846 21.7248 77.466Z" fill="#FFC035"/>
<path d="M42.1152 51.9922C42.0406 51.8678 41.9318 51.787 41.7919 51.7528C41.652 51.7155 41.5183 51.731 41.3908 51.8025C39.9328 52.7196 39.2893 54.1746 38.8478 55.7911C38.1918 58.2254 37.654 60.7062 37.0789 63.1653C35.4716 61.9435 34.3151 60.128 32.4001 59.329C30.1399 58.3901 27.1772 58.5083 24.7772 58.2502C24.2891 58.1974 24.1244 58.844 24.401 59.1487C26.2415 61.1694 27.9731 63.5632 30.5814 64.6265C32.969 65.5995 35.5866 65.5094 38.0768 65.0275C38.167 65.0275 38.254 65.0057 38.3317 64.9622C40.5732 63.7373 41.9287 61.6016 42.5255 59.1705C43.0696 56.9849 43.5857 53.9134 42.1152 51.9922Z" fill="#FFC035"/>
<path d="M121.599 84.2525C120.595 82.552 117.477 83.7396 116.171 84.2214C114.001 85.0048 112.049 86.1551 110.311 87.6691C110.296 86.6152 110.162 85.5769 109.91 84.5541C109.658 83.5313 109.295 82.5489 108.822 81.6038C108.349 80.6618 107.777 79.7851 107.106 78.9706C106.434 78.1561 105.682 77.4255 104.846 76.782C104.575 76.5737 104.022 76.5706 103.96 77.012C103.239 82.2224 104.448 87.6536 109.049 90.7344C109.152 90.809 109.267 90.837 109.394 90.8153C109.518 90.7966 109.618 90.7344 109.693 90.6287C109.792 90.778 109.932 90.8401 110.112 90.8215C113.01 90.6349 115.724 89.836 118.254 88.4183C119.42 87.7624 122.678 86.0867 121.599 84.2525Z" fill="#FFC035"/>
<path d="M125.973 64.3405C125.97 64.1944 125.917 64.0732 125.815 63.9706C125.712 63.8711 125.591 63.8182 125.445 63.812C123.346 63.5571 120.772 65.9602 119.212 67.1136C117.48 68.3571 115.978 69.8307 114.707 71.5344C113.656 69.125 112.183 67.011 110.283 65.1954C109.329 64.2908 106.173 61.269 105.707 64.0949C105.287 66.6659 107.05 69.5229 108.533 71.4473C110.264 73.6981 112.406 75.1406 115.294 74.4069C115.428 74.5344 115.587 74.5748 115.767 74.5282C118.372 73.9282 120.94 73.2225 122.827 71.2017C124.534 69.3862 126.091 66.9146 125.973 64.3405Z" fill="#FFC035"/>
<path d="M119.112 43.7819C117.915 41.5342 116.146 43.9839 115.465 45.299C114.884 46.4368 114.526 47.6399 114.399 48.9083C114.237 50.4752 114.588 52.0327 114.358 53.5747C113.528 52.9529 112.642 52.4213 111.707 51.9705C110.771 51.5229 109.798 51.1685 108.794 50.9073C107.786 50.6493 106.767 50.4876 105.728 50.4255C104.693 50.3633 103.658 50.4006 102.629 50.5405C102.284 50.5871 101.898 50.9726 102.172 51.3332C102.818 52.2006 103.558 52.9778 104.391 53.668C105.225 54.3581 106.126 54.9426 107.099 55.4214C108.072 55.9001 109.086 56.2576 110.143 56.4939C111.2 56.7333 112.272 56.8452 113.354 56.8297C113.531 56.9602 113.715 56.9727 113.908 56.867L114.035 56.8017H114.15C114.365 56.7923 114.514 56.6898 114.601 56.4939C115.577 55.9312 116.438 55.2286 117.191 54.3892C117.94 53.5498 118.54 52.6172 118.991 51.5882C119.967 49.3249 120.312 46.0327 119.112 43.7819Z" fill="#FFC035"/>
<path d="M99.2252 32.7454C96.6573 27.3329 92.1309 23.3722 87.6199 19.5701C85.1764 17.5245 82.795 15.4261 80.4945 13.2063C78.1971 10.9897 75.5918 9.18351 72.8685 7.43635L68.2954 4.50782C66.8964 3.61248 65.3171 2.18863 63.713 1.7192C62.6746 1.41764 61.7855 1.94614 60.8902 2.43112C59.3886 3.25185 57.9212 4.13476 56.4818 5.05809C50.9046 8.63014 45.8527 12.8302 41.3294 17.6613C38.6993 20.4748 36.4982 23.8386 33.4671 26.2541C31.5023 27.8179 29.1023 29.0863 28.2163 31.5018C27.9147 31.449 27.6008 31.6107 27.6505 31.993C27.9241 34.0573 31.4277 34.0387 32.9853 34.2718C35.8578 34.6573 38.7459 34.8345 41.6465 34.8003C48.0662 34.8003 54.458 34.4428 60.8902 34.8687C67.3192 35.2946 73.7545 36.0718 80.2147 36.0501C83.1214 36.0594 86.0158 35.8573 88.8914 35.4438C92.1682 34.9589 95.4293 33.5661 98.7433 33.5381C98.9516 33.5443 99.1102 33.4604 99.2159 33.2832C99.3247 33.106 99.3247 32.9257 99.2252 32.7454Z" fill="#FFC035"/>
<path d="M89.998 46.9247C87.5109 45.7962 84.9057 45.3268 82.1793 45.5133C81.8342 45.5102 81.514 45.5941 81.2155 45.7713C80.7865 46.0822 80.6901 46.6729 80.6311 47.2014C80.2891 50.2076 79.9533 53.2139 79.6238 56.217C79.3937 58.2968 78.4766 61.2937 80.0342 62.702C80.9046 63.4917 82.9254 63.1963 84.0663 63.5103C88.4498 64.729 92.3172 66.8741 95.6592 69.9549C96.1877 70.443 96.9182 70.9933 97.5587 70.6575C97.8198 70.4928 98.0188 70.272 98.1587 69.9985C100.68 65.9508 102.698 61.6637 104.205 57.1403C104.398 56.6864 104.482 56.217 104.463 55.7289C104.398 55.1662 104.065 54.6812 103.742 54.2211C101.92 51.6346 99.5328 48.7558 96.368 48.9423" fill="#6B503B"/>
<path d="M96.5827 91.6177C96.079 93.2405 95.2987 94.7203 94.2386 96.0509C93.1816 97.3846 91.9163 98.482 90.4458 99.3431C89.9204 99.6509 89.3204 99.9836 89.1619 100.565C89.0033 101.149 89.3764 101.799 89.7432 102.321C91.7795 105.21 93.8904 108.073 96.421 110.538C98.9485 113.003 101.958 115.077 105.343 116.118C106.606 116.51 107.952 116.756 109.251 116.507C111.772 116.016 113.635 113.69 114.25 111.213C114.866 108.735 114.455 106.114 113.849 103.63C112.848 99.5203 111.356 95.6001 109.366 91.8633L107.153 94.2913C106.177 95.3669 104.871 96.5452 103.466 96.1597C103.071 96.0322 102.707 95.8457 102.371 95.6001L97.1143 92.1773" fill="#52993A"/>
<path d="M58.1883 52.4305C58.123 54.386 57.753 56.4192 59.3665 57.529C60.9831 58.6389 64.5334 58.7881 66.3427 58.0389C67.2598 57.6441 68.0308 57.0596 68.6526 56.2793C69.2775 55.499 69.6785 54.6192 69.8588 53.6399C67.9003 53.4409 65.923 53.6679 63.952 53.7083C61.981 53.7456 59.9416 53.5777 58.1976 52.6637" fill="#8C4038"/>
<path d="M70.4963 53.9384C70.3315 52.4524 66.5792 52.3809 65.7025 52.2658C62.7957 51.8741 59.9231 51.7249 57.0413 52.3684C56.376 52.5176 56.6589 53.5342 57.321 53.3912L57.4423 53.3664L57.8029 54.041C57.4547 54.2493 57.405 54.8773 57.9086 55.0109C60.6102 55.7353 63.3491 55.9343 66.1284 55.614C67.0113 55.5021 70.658 55.3995 70.4963 53.9384Z" fill="white"/>
<path d="M81.5915 40.6077C81.0412 40.5735 80.9386 41.2512 81.2744 41.5403L81.1997 41.6305C81.1314 41.5745 81.0567 41.5403 80.9697 41.5217C80.8858 41.5061 80.7987 41.5093 80.7179 41.5372C80.6339 41.5621 80.5624 41.6056 80.5003 41.6678C80.4412 41.73 80.3977 41.8046 80.3759 41.8885C80.1521 42.7932 80.0402 43.7134 80.0339 44.6461C80.0339 45.3549 80.0339 46.7725 80.4101 47.4036C80.9106 48.2461 81.8371 47.6865 82.4308 47.1487C84.0164 45.6937 84.5511 40.8035 81.5915 40.6077Z" fill="#FFC089"/>
<path d="M47.7833 43.0729C47.7708 42.9827 47.7397 42.9019 47.69 42.8304C47.6403 42.7558 47.5781 42.6967 47.5004 42.6501C47.4226 42.6066 47.3418 42.5786 47.2517 42.5693C47.1646 42.563 47.0776 42.5724 46.9936 42.6034L46.9781 42.5786C47.4599 42.277 47.1833 41.4003 46.5833 41.6148C45.2651 42.0874 44.6247 43.2066 44.2392 44.4967C43.7604 46.1102 44.2392 47.4439 45.4392 48.619C46.3159 49.4802 47.0558 49.4273 47.6123 48.3144C48.4361 46.6667 47.9916 44.7952 47.7833 43.0729Z" fill="#FFC089"/>
<path d="M79.2256 94.213C77.7209 97.9654 76.7354 101.848 76.2691 105.865C75.9147 108.902 76.0484 112.77 79.6422 113.693C80.9634 114.035 81.5261 112.002 80.208 111.663C76.9468 110.824 78.3955 105.268 78.8277 102.999C79.3779 100.179 80.1893 97.4369 81.265 94.7726C81.778 93.5104 79.7261 92.9633 79.2256 94.213Z" fill="#967259"/>
<path d="M85.0176 77.8423C87.5388 70.2505 89.2269 62.41 91.1358 54.641C91.456 53.3229 89.4166 52.7633 89.0933 54.0814C87.1844 61.8504 85.4963 69.6816 82.9782 77.2827C82.5492 78.5729 84.5917 79.1262 85.0176 77.8423Z" fill="#967259"/>
<path d="M90.6356 45.2366C89.6563 47.3662 88.8791 49.5672 88.304 51.8367C87.9775 53.1548 90.0138 53.7175 90.3465 52.3963C90.8625 50.3009 91.5714 48.2677 92.4636 46.303C93.0263 45.0781 91.2014 43.9993 90.6356 45.2366Z" fill="#967259"/>
<path d="M40.4432 110.034V104.954C40.4432 101.935 40.5986 98.8732 39.9488 95.9043C39.8307 95.3634 39.0877 95.4504 38.9229 95.9043C37.412 100.185 36.2493 104.559 35.4379 109.024C35.3291 109.636 36.1778 109.922 36.4141 109.446L39.1468 111.11C39.0597 111.203 39.0255 111.315 39.038 111.442C39.0504 111.57 39.1095 111.672 39.2152 111.747L39.3706 111.874C39.4577 111.958 39.5602 112.008 39.6784 112.02C39.7965 112.036 39.9084 112.014 40.0141 111.958C40.6794 111.514 40.4432 110.761 40.4432 110.034Z" fill="#447233"/>
<path d="M112.95 113.734C108.2 115.667 103.608 112.969 100.366 109.562C97.2633 106.307 94.6674 102.526 92.37 98.6808C92.2922 98.5564 92.1865 98.4787 92.0466 98.4414C91.9067 98.4041 91.7731 98.4227 91.6456 98.4911C90.6881 98.8922 89.7772 99.3834 88.9192 99.9647C88.801 100.042 88.7264 100.151 88.6922 100.288C88.6611 100.425 88.6798 100.555 88.7513 100.677C88.7513 100.81 88.801 100.922 88.8912 101.019C92.6964 105.135 95.3669 110.33 99.9338 113.731C103.848 116.647 109.366 117.822 113.46 114.617C113.871 114.296 113.426 113.538 112.95 113.734Z" fill="#447233"/>
<path d="M92.0782 81.9488C92.3331 79.5674 93.1538 77.1705 93.7134 74.842C94.3539 72.1839 95.0782 67.9901 91.4315 67.216C91.2916 67.1849 91.1611 67.2036 91.0336 67.2719C90.9093 67.3435 90.8253 67.4492 90.7818 67.5859C89.5569 70.6544 88.3569 73.7694 87.3465 76.9249C87.0481 77.8606 86.9455 78.4731 87.4833 79.328C88.2015 80.469 89.2336 81.4887 90.0854 82.5332C90.1476 82.6234 90.2346 82.6793 90.3435 82.7011C90.4523 82.726 90.5517 82.7073 90.6481 82.6514L91.0119 83.5902C91.0119 83.6711 91.0336 83.7488 91.0492 83.8265C91.3694 85.6918 92.1124 87.5353 92.672 89.3385C92.8709 89.9851 93.8937 89.7084 93.6979 89.0618C92.9984 86.8079 91.817 84.299 92.0782 81.9488Z" fill="#447233"/>
<path d="M91.7356 106.248C91.1356 104.233 89.5003 102.71 88.9096 100.705C88.3967 98.9356 88.8133 97.1698 87.5666 95.6682C87.4858 95.5563 87.3739 95.4972 87.2371 95.491C87.1003 95.4817 86.9822 95.5283 86.8889 95.6278C86.6153 94.9749 86.2205 94.3998 85.7106 93.9055C85.6049 93.778 85.4682 93.7252 85.3034 93.747C85.2132 93.5604 85.064 93.4858 84.8588 93.52C83.9448 93.6164 83.4443 94.1107 83.264 95.0309C82.9376 96.7035 82.9562 98.4444 82.6174 100.133C82.2598 101.895 81.3334 106.251 83.5749 107.329C83.6433 107.361 83.7117 107.385 83.7832 107.404C84.1624 108.778 85.0516 109.984 84.5542 111.48C84.5324 111.57 84.5324 111.66 84.5573 111.753C84.5821 111.843 84.6257 111.921 84.6941 111.99C84.7593 112.055 84.8402 112.102 84.9303 112.126C85.0205 112.151 85.1137 112.151 85.2039 112.129C87.0599 111.617 89.5843 111.041 91.148 109.857C92.2174 109.036 92.0806 107.413 91.7356 106.248Z" fill="#447233"/>
<path d="M66.8653 101.018C64.2974 99.2992 61.7295 97.6453 59.4165 95.5873C59.3575 95.5344 59.286 95.4971 59.2082 95.4723C59.1305 95.4505 59.0528 95.4443 58.972 95.4567C58.8911 95.4692 58.8196 95.4971 58.7512 95.5438C58.6828 95.5873 58.63 95.6464 58.5865 95.7148L57.9305 95.3635C57.8808 95.2018 57.8372 95.0401 57.7999 94.8754C57.6414 94.2163 56.6186 94.4961 56.7709 95.1583C58.1357 100.832 65.0435 105.119 70.5928 105.486C70.7389 105.483 70.8633 105.43 70.9659 105.33C71.0653 105.228 71.1182 105.103 71.1213 104.96C71.2674 103.263 68.0373 101.805 66.8653 101.018Z" fill="#447233"/>
<path d="M63.5886 117.063C63.057 115.204 61.1823 114.113 59.6963 113.028C57.5263 111.439 55.316 109.935 53.404 108.029C53.3512 107.973 53.2859 107.932 53.2113 107.904C53.1367 107.88 53.0589 107.87 52.9812 107.88C52.9004 107.889 52.8289 107.917 52.7636 107.957C52.6952 108.001 52.6424 108.057 52.6019 108.122L52.1418 107.827C52.0952 107.646 52.0579 107.463 52.0268 107.28C51.918 106.611 50.8983 106.894 50.9978 107.559C51.433 110.267 53.6994 112.798 55.6642 114.601C57.716 116.5 60.2248 117.741 63.0694 117.731C63.1533 117.731 63.2311 117.713 63.3057 117.676C63.3803 117.641 63.4425 117.588 63.4922 117.523C63.5451 117.458 63.5792 117.386 63.5948 117.306C63.6103 117.222 63.6072 117.144 63.5886 117.063Z" fill="#447233"/>
<path d="M75.0321 61.8315C75.029 61.7352 75.0041 61.6481 74.9575 61.5673C74.9077 61.4865 74.8455 61.4243 74.7616 61.3777C74.6808 61.331 74.5937 61.3062 74.4973 61.3062C74.4041 61.3062 74.317 61.331 74.2331 61.3777C73.1543 62.0367 72.0196 62.5839 70.832 63.0222C69.6445 63.4606 68.4258 63.7777 67.176 63.9766C65.9263 64.1756 64.6672 64.2533 63.4019 64.2067C62.1366 64.1632 60.8869 63.9953 59.6558 63.7062C58.3656 63.4046 57.1252 62.9663 55.9283 62.3942C55.3594 62.1207 54.7158 61.6077 54.0568 61.6295C53.4008 61.6481 53.2702 61.9466 52.9904 62.5217C52.2567 64.0326 51.5728 65.0772 50.0495 65.929C49.9251 66.0036 49.8443 66.1093 49.807 66.2492C49.7697 66.3891 49.7883 66.5197 49.8598 66.6471C50.2826 67.4337 50.7085 68.2202 51.1438 69.0067C51.2433 69.1902 51.3987 69.2772 51.607 69.271C51.8153 69.2648 51.9645 69.1684 52.0547 68.9819C52.2039 69.0378 52.3469 69.0223 52.4806 68.9321C55.5863 67.0668 58.9749 68.9446 62.2174 69.2834C65.348 69.6099 68.1087 68.5528 71.0838 67.7912C72.2559 67.4927 72.9927 67.6295 74.087 68.0958C74.5284 68.2886 75.1937 68.7145 75.6911 68.6585C76.2383 68.5933 76.5212 68.2948 76.7544 67.7539C77.6808 65.5559 74.973 63.8989 75.0321 61.8315Z" fill="#DD9F72"/>
<path d="M80.8611 37.1225C80.003 35.5401 78.3336 35.1266 76.6393 35.0271C73.4714 34.8437 70.232 35.0613 67.0641 35.0893L47.3354 35.2665C46.6546 35.2665 46.6515 36.3235 47.3354 36.3204H47.4566L47.5997 36.9298C47.1302 37.0572 47.0028 37.8189 47.5748 37.9401C53.0743 39.1122 58.6609 39.9267 64.2879 40.0479C69.6289 40.1629 75.5481 39.9671 80.544 37.8966C80.6217 37.8748 80.6901 37.8344 80.7523 37.7816C80.8113 37.7256 80.858 37.6603 80.8891 37.5857C80.9201 37.5111 80.9326 37.4303 80.9264 37.3494C80.9233 37.2686 80.8984 37.194 80.8611 37.1225Z" fill="#DD9F72"/>
<path d="M97.86 28.9058C97.6611 28.738 97.4497 28.7224 97.2258 28.8592C97.0611 28.7815 96.9087 28.797 96.7657 28.9058C92.2828 31.9618 86.8454 32.4219 81.5604 32.537C75.7687 32.6644 69.9676 32.6986 64.1758 32.6986C52.5177 32.6986 40.6606 32.5836 29.4004 29.2354C29.2854 29.2043 29.1703 29.2105 29.0615 29.2571C28.9496 29.3007 28.8657 29.3753 28.8035 29.4779C28.0791 30.6437 27.7185 31.9121 27.7185 33.2831C27.7185 33.4012 27.7558 33.51 27.8273 33.6033C27.8988 33.6997 27.9921 33.7618 28.1071 33.796C42.2585 35.7204 56.5405 36.0779 70.8039 36.0717C77.8516 36.0717 85.0392 36.3608 92.0559 35.6023C93.5636 35.4468 95.059 35.2137 96.5419 34.9028C97.5274 34.6883 98.715 34.4707 99.4207 33.6717C100.932 31.9743 99.2031 30.0002 97.86 28.9058Z" fill="#D39C2D"/>
<path d="M49.4244 65.1768C49.356 65.1954 49.2876 65.2234 49.2192 65.2452L48.8772 64.8099C48.9674 64.7291 49.0264 64.6265 49.0482 64.5084C49.0699 64.3871 49.0544 64.2721 48.9984 64.1633C48.9425 64.0545 48.8617 63.9737 48.7497 63.9208C48.6409 63.868 48.5259 63.8524 48.4047 63.8773C40.9093 65.4877 33.5382 69.5789 29.6584 76.3344C27.7185 79.7261 26.4345 83.5189 25.2563 87.234C23.8853 91.5553 23.9723 96.2092 24.2086 100.692C24.2335 101.174 24.9485 101.46 25.1941 100.95C26.7361 97.8009 27.6563 94.4154 28.8097 91.12C30.1092 87.405 31.5921 83.7428 33.5351 80.3137C37.1942 73.866 42.5258 68.5126 49.7135 66.1809C50.3477 65.982 50.0741 64.9623 49.4244 65.1768Z" fill="#81C469"/>
<path d="M86.5006 66.0474C85.9846 63.5541 84.0478 63.2992 81.8374 62.9075C80.9731 62.7551 79.2415 62.2235 78.4052 62.6836C77.6342 63.1033 77.398 64.3562 77.0902 65.1023C77.0591 65.1676 77.0467 65.2329 77.0498 65.3044C77.0529 65.3759 77.0715 65.4412 77.1088 65.5034C77.143 65.5624 77.1897 65.6122 77.2519 65.6526C77.3109 65.6899 77.3762 65.7116 77.4477 65.7179C77.3296 66.0443 77.4819 66.4484 77.9109 66.3987C80.7742 66.0505 83.5908 66.2775 86.3576 67.0795C86.768 67.1977 86.5753 66.4329 86.5006 66.0474Z" fill="#81C469"/>
<path d="M70.8633 11.944C69.4798 9.69627 67.6239 7.95222 65.2891 6.71179C62.6746 5.35012 60.9119 6.28588 58.6518 7.89315C53.8455 11.3191 49.1823 14.9844 45.6164 19.7161C44.2579 21.115 42.9366 22.5575 41.6838 24.0498C40.9376 24.9327 40.1076 25.8747 40.6081 27.0684C40.633 27.1431 40.6734 27.2115 40.7262 27.2705C40.7791 27.3296 40.8444 27.3762 40.919 27.4073C40.9936 27.4353 41.0713 27.4508 41.1521 27.4446C41.233 27.4415 41.3076 27.4197 41.3791 27.3824C43.5242 26.4063 45.2558 24.4726 47.0651 22.999C49.3035 21.1585 51.6351 19.4394 54.0538 17.8445C56.2518 16.3989 58.5523 15.1367 60.9492 14.0549C62.5378 13.3523 64.0611 12.7398 65.8301 12.6745C67.3565 12.6217 68.8643 12.8611 70.397 12.7367C70.4933 12.7367 70.5804 12.7118 70.6643 12.6652C70.7451 12.6186 70.8104 12.5533 70.8571 12.4725C70.9068 12.3916 70.9317 12.3046 70.9317 12.2082C70.9317 12.1149 70.9099 12.0248 70.8633 11.944Z" fill="#FFD580"/>
<mask id="mask0_97_1059" style="mask-type:luminance" maskUnits="userSpaceOnUse" x="0" y="0" width="127" height="119">
<path d="M0.699463 0H126.645V119H0.699463V0Z" fill="white"/>
</mask>
<g mask="url(#mask0_97_1059)">
<path d="M122.79 82.5458C119.759 81.7779 116.037 82.7541 113.115 84.7095C114.206 81.8556 115.046 78.9302 115.63 75.9302C115.683 75.8897 115.73 75.84 115.773 75.7872C121.26 75.0752 126.266 69.013 126.586 63.6503C126.586 63.5135 126.558 63.3767 126.505 63.2492C126.449 63.1218 126.374 63.0067 126.275 62.9072C126.175 62.8109 126.06 62.7332 125.933 62.6803C125.802 62.6275 125.669 62.5995 125.529 62.5964C122.373 62.7829 119.065 64.8689 116.871 67.6482C117.166 64.0637 116.955 60.5072 116.236 56.9818C120.601 53.5807 121.795 45.8211 119.339 41.0646C119.268 40.9433 119.177 40.8407 119.065 40.7568C118.954 40.6729 118.829 40.6138 118.692 40.5796C118.559 40.5423 118.422 40.533 118.282 40.5516C118.142 40.5703 118.012 40.6138 117.89 40.6822C115.717 42.1309 114.132 44.7548 113.379 47.6024C112.114 44.1548 110.501 40.8749 108.542 37.7661C106.074 33.8427 103.139 30.3018 99.7378 27.1432C96.3368 23.9815 92.5844 21.3141 88.4807 19.1348C87.4735 18.2613 86.4755 17.3846 85.4994 16.5203C79.8662 11.5369 74.0993 6.54406 67.8785 2.28185C66.5572 1.38029 64.8567 -0.00936338 63.1593 0.102555C61.1043 0.242452 59.0152 1.78443 57.3675 2.88807C51.0162 7.15961 45.2431 12.3825 39.6969 17.6208C38.7642 18.5006 38.3601 18.9017 37.443 19.7846L36.8119 20.1079C34.1943 21.6281 31.7227 23.3598 29.4004 25.2997C27.0781 27.2427 24.9392 29.366 22.9838 31.6728C21.0283 33.9795 19.2843 36.4355 17.7516 39.0407C16.219 41.6459 14.9195 44.3599 13.8531 47.1859C13.0635 44.5029 11.5246 42.0718 9.45725 40.6822C9.336 40.6138 9.20543 40.5703 9.06553 40.5516C8.92874 40.533 8.79196 40.5423 8.65517 40.5765C8.51838 40.6138 8.39402 40.6729 8.28211 40.7568C8.17019 40.8407 8.08003 40.9433 8.00853 41.0646C5.55877 45.8211 6.75567 53.5807 11.1111 56.9818C10.393 60.5072 10.1816 64.0637 10.4769 67.6482C8.28211 64.8689 4.97741 62.7891 1.82195 62.5964C1.67894 62.5964 1.54526 62.6243 1.41469 62.6772C1.28412 62.73 1.16909 62.8047 1.06961 62.9041C0.970125 63.0036 0.892404 63.1186 0.836445 63.2461C0.783595 63.3767 0.755615 63.5104 0.755615 63.6503C1.07272 68.9601 5.97846 74.9478 11.4065 75.7592C11.9816 78.7374 12.8055 81.6442 13.878 84.4826C11.0179 82.6919 7.45826 81.8121 4.5515 82.5458C4.03855 82.6732 3.60953 83.3136 3.80849 83.8421C5.7111 88.7883 12.1433 93.0132 17.5495 92.2173C17.9941 92.9821 18.4573 93.7376 18.9392 94.4806C19.4211 95.2236 19.9216 95.9542 20.4377 96.6723C20.9568 97.3873 21.4947 98.093 22.048 98.7832C22.6014 99.4765 23.1734 100.151 23.761 100.813C24.3486 101.479 24.9548 102.125 25.5734 102.756C26.1952 103.39 26.8294 104.006 27.4823 104.606C28.1351 105.206 28.8004 105.791 29.4813 106.359C30.1621 106.925 30.8585 107.476 31.5673 108.007C32.2761 108.542 32.9973 109.055 33.731 109.552C34.4678 110.047 35.2139 110.525 35.9725 110.985C36.7311 111.445 37.5021 111.884 38.2824 112.304C39.0627 112.726 39.8554 113.127 40.6544 113.507C41.4565 113.889 42.2679 114.25 43.0855 114.592C43.9063 114.93 44.7332 115.251 45.5695 115.549C46.4026 115.851 47.2451 116.127 48.097 116.385C48.9457 116.643 49.8006 116.88 50.6618 117.094C51.5229 117.309 52.3903 117.502 53.2607 117.672C54.1312 117.843 55.0048 117.993 55.8846 118.12C56.7644 118.248 57.6442 118.353 58.5271 118.437C59.4131 118.521 60.2991 118.583 61.1852 118.621C62.0712 118.661 62.9603 118.677 63.8463 118.674C64.7355 118.667 65.6215 118.642 66.5075 118.593C67.3966 118.543 68.2795 118.471 69.1624 118.378C70.0453 118.285 70.9251 118.167 71.8018 118.03C72.6785 117.893 73.5521 117.735 74.4226 117.554C75.2899 117.371 76.1542 117.169 77.0154 116.945C77.8734 116.721 78.7252 116.476 79.5708 116.208C80.4195 115.941 81.2589 115.655 82.089 115.344C82.9221 115.036 83.746 114.707 84.5605 114.355C85.375 114.007 86.1833 113.637 86.9792 113.246C87.775 112.857 88.5616 112.447 89.3388 112.018C90.1129 111.588 90.8776 111.138 91.6331 110.671C92.2953 110.258 92.9512 109.823 93.601 109.375C94.6487 110.535 95.7492 111.644 96.9057 112.698C100.279 115.77 104.752 118.81 109.571 117.881C114.461 116.939 115.848 111.25 115.817 106.969C115.783 101.74 113.687 96.8961 111.346 92.3075C116.373 92.2049 121.807 88.3095 123.524 83.8328C123.732 83.3167 123.303 82.6732 122.79 82.5458ZM124.276 64.9124C123.44 68.5373 120.067 72.5726 116.47 73.5301C116.852 69.927 120.635 65.8762 124.276 64.9124ZM3.06548 64.9124C6.71214 65.8762 10.4987 69.9239 10.8749 73.5301C7.27173 72.5726 3.90176 68.5373 3.06548 64.9124ZM113.55 73.5581C110.295 72.0939 107.538 67.6762 107.501 64.0948C110.342 65.5466 113.003 68.8576 113.759 72.0907C113.693 72.5757 113.622 73.0638 113.544 73.5581H113.55ZM117.999 43.306C119.128 46.8501 118.298 52.0419 115.686 54.6906C115.668 54.644 115.649 54.5973 115.63 54.5507C115.59 54.4077 115.546 54.2647 115.5 54.1186C115.469 54.0284 115.428 53.9414 115.375 53.8636C114.368 50.5465 115.546 45.7682 117.993 43.306H117.999ZM113.581 58.2658C113.958 60.7653 114.147 63.2772 114.15 65.8047C114.15 66.4171 114.135 67.0265 114.11 67.6327C112.394 64.7943 109.717 62.4502 106.86 61.5518C106.726 61.5176 106.59 61.5083 106.45 61.5238C106.31 61.5425 106.182 61.586 106.058 61.6544C105.937 61.7259 105.834 61.8129 105.747 61.9217C105.66 62.0337 105.598 62.1549 105.558 62.2886C104.612 67.2441 108.29 73.8597 113.162 75.6846C112.559 78.697 111.688 81.6287 110.55 84.4826C109.854 81.0318 107.914 77.7084 105.318 75.8866C104.864 75.5664 104.128 75.7996 103.873 76.2659C103.677 76.6234 103.512 76.9934 103.375 77.3758C102.088 75.3799 100.608 73.5364 98.9326 71.8483C101.584 66.8803 103.953 61.7787 106.046 56.5497C108.411 57.8772 111.147 58.5704 113.581 58.2658ZM108.427 89.5873C108.427 89.6152 108.411 89.6463 108.405 89.6743C105.499 87.4577 104.124 82.0981 105.212 78.5136C107.644 80.9136 109.182 85.3033 108.61 88.7448C108.511 89.0184 108.452 89.2981 108.427 89.5873ZM84.4082 87.1375C82.9128 86.5188 80.7739 86.6245 78.977 87.2992C78.862 86.9696 78.7874 86.6339 78.7501 86.2888C78.6599 84.9644 79.3563 84.8152 80.3947 84.61C82.0175 84.2898 83.6123 84.5478 85.1418 85.1199C86.4258 85.6111 86.9636 83.5717 85.7045 83.0898C84.3615 82.5706 82.9719 82.3157 81.5294 82.3219C81.5853 81.3395 81.803 80.3292 82.8506 79.9996C83.8206 79.6918 85.0641 79.9716 86.0123 80.2141C88.5025 80.8577 89.6372 82.4121 90.2186 84.8183C90.859 87.4888 91.4497 90.5324 94.0829 91.7728C93.7222 94.7604 92.5937 97.5677 89.6092 98.3324C88.0673 95.264 85.9999 91.9251 82.1605 91.7013C81.4237 91.6515 80.7086 91.7572 80.0185 92.0122C79.0547 92.379 78.7345 93.265 78.0506 92.065C76.4402 89.2018 82.1605 88.4681 83.8361 89.1583C85.1014 89.693 85.6517 87.6505 84.4082 87.1375ZM78.262 61.7445L78.1501 61.729C77.805 61.6668 77.5283 61.7787 77.3231 62.0616C77.0122 62.2575 76.8599 62.5373 76.863 62.9041C76.8506 63.3736 76.8008 63.8368 76.7107 64.3C76.0609 63.5104 75.9739 62.3508 75.9117 61.3155C76.8133 60.4886 77.6185 59.5777 78.3242 58.5797C78.2869 59.643 78.2402 60.6969 78.262 61.7445ZM75.9521 66.4638C74.0899 70.1726 69.6816 72.6814 65.7458 73.1664C60.7251 73.7851 53.9571 71.5871 51.5291 66.8399C52.4182 66.1746 53.211 65.3415 53.4939 64.244C53.5934 63.8648 53.6711 63.4824 53.7271 63.0938C55.4307 64.1974 57.2742 64.9715 59.2608 65.4161C64.5489 66.6037 69.8402 65.6306 73.9531 62.8575C74.2019 64.3 74.7148 65.6523 75.9615 66.4731L75.9521 66.4638ZM75.9241 58.3279C69.7158 66.1187 55.3406 65.7456 50.4814 56.6274C48.9674 53.7952 48.7623 50.1766 48.3985 47.0553C48.2369 45.6874 48.1125 44.3133 48.0441 42.9361C48.1312 42.8086 48.184 42.6656 48.2027 42.5102C48.4856 40.4428 49.0047 38.4345 49.7571 36.4884C49.7726 36.4573 49.7726 36.4262 49.7851 36.3951C51.7809 36.4355 53.7768 36.4697 55.7696 36.4946C63.3178 36.5816 70.8661 36.5443 78.4081 36.3391C79.0268 38.8324 79.4092 41.363 79.5522 43.9278C79.5584 44.1548 79.633 44.3568 79.7729 44.534C79.6734 46.9682 79.4029 49.3838 78.9615 51.7807C78.4983 54.2181 77.4879 56.4036 75.9304 58.3404L75.9241 58.3279ZM45.9519 43.0729C46.0016 44.0957 46.0762 45.1123 46.185 46.1195C46.2441 46.7226 46.3032 47.3413 46.3653 47.9662C45.5446 47.2978 45.1156 45.9175 45.1342 45.0221C45.1342 44.2573 45.4078 43.6076 45.9519 43.0729ZM81.6973 46.6511L81.8185 44.5558C81.8589 43.6231 81.8838 42.6936 81.8931 41.7609C82.7947 42.2211 83.0869 43.7071 82.9719 44.5931C82.8537 45.4978 82.4247 46.2221 81.6879 46.7631L81.6973 46.6511ZM80.432 54.9828C80.4257 54.8958 80.4102 54.8118 80.3853 54.7279C80.3853 54.6999 80.4102 54.6719 80.4195 54.644C81.0568 52.959 81.3335 51.0875 81.5045 49.2346C82.7201 48.7558 83.6745 47.9662 84.3677 46.8625C85.5553 46.9651 86.746 47.0708 87.9336 47.1952C87.4331 48.5755 87.0507 49.9869 86.7833 51.4294C86.7584 51.5476 86.7553 51.6657 86.7709 51.7869C86.7056 51.9268 86.6714 52.073 86.6652 52.2284C86.6621 52.3838 86.69 52.5331 86.7491 52.6761C86.8113 52.8191 86.8952 52.9434 87.0103 53.0491C87.1222 53.1548 87.2527 53.2357 87.3989 53.2885C87.775 53.4191 88.1543 53.5434 88.5367 53.674C87.5263 56.9227 86.5564 60.187 85.6268 63.4637C83.9139 62.8668 82.1667 62.4067 80.3853 62.0772C80.3076 59.6958 80.6216 57.3331 80.432 54.9642V54.9828ZM87.0569 66.2617L87.6196 64.244C88.5585 60.93 89.5408 57.6253 90.5605 54.33C91.3098 54.5507 92.059 54.7652 92.8145 54.9611L92.9233 54.989C92.0963 58.4989 91.1823 61.9901 90.2466 65.4751L89.687 67.5208C88.717 71.1021 87.7408 74.6618 86.8268 78.2493C85.9191 77.9602 84.9926 77.8048 84.0444 77.7768C84.9926 73.9094 85.9968 70.0638 87.0569 66.243V66.2617ZM97.4528 48.4947C97.5679 49.39 96.9679 50.8139 96.7565 51.6968C96.6414 52.1787 96.629 52.8439 96.2559 53.1921C95.8829 53.5403 95.4165 53.4222 94.944 53.3072C94.8228 53.1797 94.6766 53.102 94.5026 53.074C93.0227 52.8129 91.5865 52.4025 90.1906 51.8429C90.0041 51.7745 89.8144 51.7745 89.6279 51.8429C89.3916 51.759 89.1554 51.6844 88.9191 51.588C89.2642 49.8657 89.9761 46.362 91.5958 46.2936C92.5253 46.2563 93.7968 46.8532 94.6798 47.1455C95.1927 47.3102 95.6901 47.4874 96.1875 47.6802C96.5419 47.8139 96.8964 47.9569 97.2477 48.1123C97.7948 48.1869 97.8601 48.3082 97.4528 48.476V48.4947ZM98.9451 51.616C99.0259 51.2771 99.1565 50.8512 99.2902 50.4191C99.8093 50.6087 100.304 50.8512 100.773 51.1434C101.581 52.8377 102.738 54.2429 104.246 55.3683C102.222 60.4855 99.9213 65.4751 97.3378 70.3374C95.7274 68.9073 93.9958 67.6358 92.1492 66.5228C93.1409 62.8482 94.1108 59.1642 94.9751 55.4554C95.83 55.5953 96.6881 55.6108 97.3844 55.2719C98.6124 54.6813 98.6777 52.7911 98.9451 51.6004V51.616ZM92.1274 83.7396C91.5865 81.7312 90.5605 80.0898 88.7885 79.067C89.6745 75.5757 90.6258 72.1001 91.5709 68.6213C95.973 71.3975 102.614 80.0711 102.766 80.1551C102.402 84.3458 104.149 89.18 107.336 91.4961C106.319 93.0909 105.132 94.549 103.779 95.8733C101.009 93.9086 98.4259 91.723 96.029 89.3168C95.914 89.2049 95.7803 89.1241 95.6311 89.0712C95.4787 89.0215 95.3233 89.0059 95.1647 89.0246C95.0031 89.0432 94.857 89.0961 94.7233 89.1831C94.5896 89.2702 94.4777 89.3821 94.3969 89.5189C92.7771 88.266 92.6279 85.5831 92.1274 83.7396ZM113.062 55.3497C113.121 55.6232 113.171 55.903 113.224 56.1859C109.695 56.5808 105.007 54.2274 103.123 51.1123C106.518 50.9227 110.867 52.6232 113.062 55.3497ZM112.158 51.7403C109.092 49.5952 105.001 48.5538 101.631 49.1817C101.019 48.8273 100.378 48.5382 99.7067 48.3206C99.7378 47.9382 99.6788 47.5683 99.5233 47.2138C98.9886 46.1289 96.8746 45.6812 95.8394 45.3112C94.3564 44.8014 92.4476 43.9838 90.8497 44.1019C90.116 44.1548 89.5191 44.5744 89.0217 45.19C87.7035 45.0501 86.3885 44.9257 85.0703 44.8107C85.1014 44.5558 85.117 44.3009 85.1139 44.0428C85.0641 42.2708 84.1004 40.2936 82.4185 39.6967C82.7791 38.5713 83.0869 37.4334 83.3418 36.277C83.3418 36.2614 83.3418 36.2428 83.3418 36.2241C87.7439 36.0811 92.1554 35.8573 96.5109 35.2697C97.6922 35.1111 99.2777 35.0303 100.304 34.3339C101.687 33.392 100.714 31.8624 99.9648 30.8427L99.8249 30.6655C102.722 33.6158 105.212 36.877 107.302 40.4428C109.388 44.0086 111.007 47.7734 112.158 51.7403ZM98.9326 33.0966C99.0788 33.1433 98.7337 33.2179 98.9326 33.0966ZM29.0678 32.0738C29.6554 31.2158 30.2896 30.3982 30.9766 29.6178C32.9942 27.2489 35.1704 25.0137 37.3777 22.8188C37.5207 22.6727 37.6668 22.539 37.8098 22.3929C37.8907 22.3307 37.9622 22.2623 38.0212 22.1815C43.1601 17.0613 48.5788 12.255 54.2742 7.76273C56.4628 6.05908 58.723 4.34611 61.1852 3.0404C61.8349 2.69532 62.581 2.27252 63.3271 2.20102C63.4515 2.18547 63.4484 2.17615 63.7126 2.26941C63.9862 2.38444 64.2505 2.51501 64.5054 2.65802C69.8775 5.58032 74.6589 10.0073 79.2817 13.9338C81.7625 16.0384 84.2341 18.1711 86.6559 20.3535C86.6559 20.3535 87.6662 21.4913 88.2849 21.8333C90.7502 24.1028 93.1626 26.4375 95.4756 28.8531C96.287 29.7049 97.0922 30.5691 97.829 31.4894C98.0031 31.7039 98.3855 32.3101 98.6497 32.708C98.2518 32.8137 97.8632 32.9287 97.4559 33.0034C92.7025 33.8707 87.7346 33.9298 82.919 34.1101C75.806 34.365 68.6837 34.4614 61.5675 34.4459C56.9447 34.4459 52.3219 34.3806 47.7208 34.25C47.4192 34.1039 47.1146 34.0946 46.8068 34.222C44.8016 34.163 42.7933 34.0852 40.7819 33.9951C36.8554 33.8085 32.4564 33.9205 28.645 32.792C28.7693 32.5401 28.9123 32.3008 29.0678 32.0738ZM13.9402 55.8067C15.9951 52.8191 20.6428 50.9165 24.2242 51.1092C22.2998 54.2989 17.4252 56.6927 13.8718 56.1549C13.8936 56.0367 13.9153 55.9217 13.9402 55.8067ZM12.3112 51.9362C12.0562 52.8408 11.8479 53.7517 11.6521 54.6719C9.04688 52.0232 8.22615 46.8408 9.35155 43.306C11.3474 45.3237 12.5039 48.8957 12.3112 51.9362ZM13.5485 73.6794C13.5174 73.4431 13.4801 73.2068 13.4428 72.9674C13.8718 69.47 16.7537 65.6772 19.8656 64.0917C19.8097 67.7695 16.9122 72.3301 13.5454 73.67L13.5485 73.6794ZM6.40437 84.3986C9.81787 84.2463 14.1547 86.4038 16.0013 89.3168C16.1475 89.6184 16.306 89.9199 16.4583 90.2215C12.7557 90.3614 8.29143 87.6038 6.40437 84.3986ZM18.961 89.665C18.9485 89.6463 18.9392 89.6277 18.933 89.609C17.904 86.0743 19.4957 81.1219 22.1382 78.5136C23.2201 82.095 21.8491 87.4453 18.9516 89.665H18.961ZM20.0086 91.4992C24.2646 88.4059 25.9527 80.8079 23.4812 76.2659C23.4097 76.1478 23.3164 76.0452 23.2045 75.9612C23.0926 75.8773 22.9714 75.8151 22.8346 75.7809C22.7009 75.7436 22.5641 75.7374 22.4242 75.753C22.2843 75.7716 22.1568 75.8151 22.0356 75.8866C19.3278 77.783 17.335 81.3084 16.7195 84.9054C15.8801 82.7136 15.1557 80.4846 14.5433 78.2214C14.3568 77.5468 14.1827 76.8628 14.0303 76.1758L13.9464 75.7716C18.9423 74.0866 22.7662 67.3311 21.7993 62.2793C21.762 62.1456 21.6998 62.0243 21.6128 61.9155C21.5257 61.8036 21.4232 61.7166 21.3019 61.6451C21.1807 61.5767 21.0501 61.5331 20.9102 61.5176C20.7703 61.4989 20.6335 61.5083 20.4998 61.5425C17.4967 62.4876 14.6956 65.0275 12.992 68.0648C12.9609 67.3094 12.9423 66.5539 12.9423 65.7985C12.9454 63.2585 13.1381 60.7342 13.5298 58.2253C18.619 59.0181 25.1258 55.3061 26.8232 50.5372C26.8605 50.4035 26.8698 50.2667 26.8512 50.1268C26.8325 49.99 26.789 49.8595 26.7206 49.7382C26.6522 49.617 26.5621 49.5144 26.4501 49.4273C26.3413 49.3403 26.2201 49.2781 26.0833 49.2408C22.5548 48.4481 18.1216 49.5766 14.9133 51.9393C16.1102 47.7983 17.8107 43.875 20.0117 40.1661C22.2128 36.4573 24.8429 33.0811 27.9082 30.0375C27.5942 30.4728 27.2895 30.9142 27.0191 31.3681C26.6864 31.9215 26.3289 32.5557 26.3475 33.2241C26.3475 33.3111 26.36 33.3951 26.3817 33.479V33.5008C26.5527 34.6075 28.2502 34.878 29.1144 35.0365C31.1911 35.3972 33.2803 35.6365 35.3849 35.7578C38.357 35.9785 41.3321 36.1308 44.3104 36.2365C44.3664 37.2594 44.5 38.2697 44.7083 39.2708C44.8078 39.8646 44.9508 40.4459 45.1374 41.0179C44.7829 41.2666 44.4658 41.5589 44.1892 41.8915C43.9094 42.2242 43.6793 42.5879 43.499 42.9796C43.3156 43.3713 43.1881 43.7817 43.1135 44.2076C43.0358 44.6335 43.0171 45.0594 43.0544 45.4916C43.2192 47.618 44.5467 49.875 46.6514 50.3507C46.9094 52.3248 47.2669 54.2958 47.9353 56.0802C48.7529 58.2036 50.0089 60.0254 51.7063 61.5425C51.7654 62.7269 51.5726 63.8461 50.8016 64.6886C50.7022 64.2098 50.6493 63.7249 50.6369 63.2337C50.6338 62.9881 50.5498 62.7736 50.3882 62.587C50.2265 62.4036 50.0244 62.2917 49.7788 62.2544C49.5488 62.1549 49.3156 62.1487 49.0794 62.2326C45.7716 63.2927 42.5539 64.443 39.6067 65.9881C43.642 62.7425 45.1622 55.3776 42.7156 50.9507C42.4606 50.4843 41.727 50.245 41.27 50.5714C38.1487 52.788 35.9849 57.1901 35.8233 61.3497C32.8108 58.1943 27.7341 56.3227 23.8387 57.33C23.3258 57.4637 22.8936 58.0979 23.0988 58.6295C25.0605 63.6596 31.7445 67.9342 37.2067 66.8772C37.387 66.9954 37.5829 67.0358 37.7943 67.0047C34.6512 68.8607 32.0771 71.3073 30.0719 74.3478C25.9216 80.7115 24.6377 88.3437 23.4004 95.7365C22.1133 94.4464 20.9817 93.035 19.9993 91.4992H20.0086ZM38.2699 64.3871C37.1881 60.8585 38.7518 55.8502 41.3943 53.2108C42.4948 56.7766 41.1549 62.1487 38.2606 64.3746L38.2699 64.3871ZM35.8077 64.9498C32.102 65.1207 27.6066 62.3943 25.6947 59.1891C29.444 58.987 34.3466 61.586 35.7984 64.9373L35.8077 64.9498ZM65.8515 116.171C61.1261 113.398 56.7457 110.121 52.3903 106.81C51.3084 105.989 50.2514 107.833 51.3208 108.632C54.7716 111.253 58.2349 113.852 61.8722 116.202C58.2318 116.084 54.6442 115.583 51.1125 114.694C47.5809 113.805 44.1829 112.549 40.9249 110.929C41.043 106.117 41.1021 101.301 41.1021 96.4889C41.1021 95.1334 38.985 95.1303 38.985 96.4889C38.985 100.935 38.9352 105.38 38.8326 109.826C33.5694 106.888 28.9776 103.136 25.0605 98.5687C26.3444 91.036 27.3237 83.0774 31.303 76.3872C33.1652 73.1664 35.6865 70.5892 38.8668 68.6493C41.9073 66.8244 45.271 65.6679 48.6255 64.5829C49.7695 72.0534 58.6701 76.0359 65.6308 75.296C71.6153 74.6649 78.1128 70.2534 78.89 63.9394C80.9978 64.244 83.0496 64.7539 85.0548 65.472C83.8859 69.6721 82.7885 73.8877 81.7594 78.1219C81.7563 78.1374 81.7563 78.1561 81.7594 78.1716C79.8972 78.9519 79.462 80.8141 79.3905 82.6421C79.0112 82.7509 78.6444 82.8971 78.2931 83.0743C76.0267 84.2401 76.6547 86.3323 77.0837 88.3189C75.5635 89.494 74.8982 91.2443 76.3687 93.3583C76.6983 93.8992 77.1179 94.3562 77.6278 94.7324C76.5521 99.1127 75.1438 103.605 74.7428 108.069C74.5936 109.72 74.6215 112.359 75.8993 113.637C76.3594 114.097 77.0527 114.222 77.8112 114.178C73.9065 115.316 69.921 115.978 65.8546 116.158L65.8515 116.171ZM83.2361 110.948C82.7201 111.34 81.1812 111.327 80.5346 111.445C79.8879 111.564 78.2651 112.176 77.6278 112.03C76.2164 111.71 76.9283 107.401 77.1552 106.263C77.9262 102.346 78.9553 98.4568 79.8568 94.5645C80.2858 94.294 80.6962 93.9832 81.1936 93.8806C81.6817 93.7687 82.1729 93.7593 82.6672 93.8464C81.6258 97.2692 81.0973 100.77 81.0817 104.345C81.0817 105.539 80.9698 107.009 82.204 107.656C82.9719 108.063 83.4879 107.699 83.6216 108.837C83.7025 109.474 83.7025 110.597 83.2392 110.936L83.2361 110.948ZM85.6144 111.187C85.8693 109.854 86.0838 107.569 84.9771 106.524C84.4797 106.055 83.6216 106.114 83.2237 105.632C82.7853 105.107 83.2392 102.486 83.2921 101.78C83.4817 99.4019 83.9139 97.0702 84.5947 94.7852C85.8102 95.7832 86.7274 97.3687 87.4331 98.7335C87.2341 98.8734 87.1004 99.063 87.0351 99.2962C86.9108 99.4547 86.8424 99.6381 86.8331 99.8402C86.8237 100.042 86.8766 100.229 86.9885 100.4C87.8869 101.932 88.8787 103.428 89.9263 104.873C89.9512 106.179 89.9792 107.485 90.001 108.784C88.5802 109.655 87.1191 110.451 85.6144 111.175V111.187ZM113.631 105.458C113.989 109.639 113.118 116.078 107.684 115.944C103.372 115.848 99.772 112.642 96.8808 109.776C95.0901 107.985 93.4393 106.073 91.9347 104.037C91.8818 103.931 91.8134 103.838 91.7264 103.757C90.9585 102.703 90.2248 101.622 89.5315 100.512C90.4704 100.344 91.3502 100.017 92.174 99.5324C92.9948 99.0506 93.7036 98.4381 94.3036 97.6982C95.5316 96.1625 95.9855 94.3127 96.1844 92.4163C98.3171 94.4091 100.583 96.2402 102.98 97.9065C103.13 98.0868 103.313 98.2143 103.537 98.2889C104.491 98.9386 105.464 99.5666 106.459 100.17C107.625 100.869 108.691 99.0443 107.529 98.348C106.863 97.9469 106.217 97.5303 105.57 97.1107C106.916 95.7428 108.101 94.2474 109.127 92.6246C111.222 96.6505 113.236 100.879 113.634 105.445L113.631 105.458ZM110.874 90.2215C112.307 86.867 117.191 84.2307 120.943 84.3986C119.05 87.6132 114.573 90.3738 110.874 90.2215Z" fill="#3F2622"/>
</g>
<path d="M64.443 98.5751C62.1673 97.6145 60.2585 96.1751 58.7134 94.2538C57.8585 93.203 56.3694 94.7015 57.215 95.7461C58.8844 97.8041 60.9394 99.3554 63.3798 100.397C64.614 100.919 65.6959 99.1036 64.443 98.5751Z" fill="#3F2622"/>
<path d="M69.2279 50.528C67.9812 50.3726 66.8465 50.6648 65.6962 50.8887C65.5968 50.8638 65.4973 50.8545 65.3978 50.8638C65.6558 50.0399 64.8071 49.0109 63.8962 49.6047C63.3304 49.9715 62.2423 50.0586 62.2299 49.0762C62.2299 48.5632 62.8703 47.7425 63.0817 47.3135C63.5978 46.3591 63.8807 45.3425 63.9304 44.2606C63.9584 42.9021 61.8382 42.9021 61.8102 44.2606C61.7698 46.3311 59.3946 48.1684 60.2091 50.2918C60.2496 50.3975 60.2962 50.4969 60.3522 50.5933C59.6931 50.4783 59.034 50.4565 58.3687 50.528C56.5718 50.7581 55.1355 51.7653 54.122 53.2172C53.5251 54.069 53.5469 54.6814 54.122 54.4731C54.2091 54.4452 55.2754 53.926 56.3044 54.3426C56.7552 61.7167 69.6382 61.3685 71.3263 54.3643C72.0973 54.0503 72.9181 54.3799 73.1264 54.4389C74.115 54.8431 74.1523 54.1996 73.4683 53.2172C72.4611 51.7685 71.0217 50.7581 69.2279 50.528ZM58.4433 54.0566C59.435 54.125 60.4454 54.3861 61.4247 54.5136C63.004 54.6193 64.5833 54.6193 66.1595 54.5136C67.1885 54.383 68.2144 54.1063 69.2434 54.0503C68.003 58.6949 58.891 59.1861 58.4495 54.069L58.4433 54.0566Z" fill="#3F2622"/>
<path d="M57.6257 43.4209C58.6516 44.3162 60.1439 42.8302 59.1211 41.9318C58.6765 41.5276 58.1791 41.2043 57.6288 40.9618C57.0786 40.7224 56.5034 40.5732 55.9034 40.5172C55.3034 40.4613 54.7127 40.5017 54.1252 40.6354C53.5407 40.7722 52.9904 40.9991 52.4775 41.3131C51.3241 42.025 52.3842 43.8499 53.5469 43.1318C53.8547 42.9328 54.1905 42.7867 54.5449 42.6934C54.9024 42.6033 55.2661 42.5691 55.633 42.5939C56.0029 42.6219 56.3573 42.7028 56.6962 42.8458C57.0381 42.9857 57.3459 43.1784 57.6257 43.4209Z" fill="#3F2622"/>
<path d="M74.6499 41.3131C74.137 40.9991 73.5898 40.7722 73.0022 40.6354C72.4178 40.5017 71.824 40.4613 71.224 40.5172C70.6271 40.5732 70.0519 40.7224 69.5017 40.9618C68.9514 41.2043 68.4509 41.5276 68.0063 41.9318C66.9804 42.8302 68.4882 44.3162 69.5048 43.4209C69.7815 43.1784 70.0924 42.9857 70.4312 42.8458C70.7732 42.7028 71.1276 42.6219 71.4944 42.5939C71.8644 42.5691 72.225 42.6033 72.5825 42.6934C72.9401 42.7867 73.2727 42.9328 73.5836 43.1318C74.7432 43.8375 75.8064 42.025 74.6499 41.3131Z" fill="#3F2622"/>
</svg>
